<svg xmlns="http://www.w3.org/2000/svg" width="1360" height="620" viewBox="0 0 1360 620" role="img" aria-labelledby="title desc">
  <title id="title">Q1 Playwright Progress Preview</title>
  <desc id="desc">A three-lane progress diagram showing completed foundation work, current progress, and the next plan for Playwright adoption.</desc>
  <defs>
    <marker id="arrow" viewBox="0 0 10 10" refX="8" refY="5" markerWidth="8" markerHeight="8" orient="auto-start-reverse">
      <path d="M 0 0 L 10 5 L 0 10 z" fill="#5f6b7a"/>
    </marker>
    <style>
      .title { font: 700 18px Segoe UI, Arial, sans-serif; fill: #1f2933; }
      .text { font: 14px Segoe UI, Arial, sans-serif; fill: #1f2933; }
      .small { font: 13px Segoe UI, Arial, sans-serif; fill: #1f2933; }
      .lane-title { font: 700 18px Segoe UI, Arial, sans-serif; fill: #1f2933; }
      .box { rx: 12; ry: 12; stroke-width: 2; }
      .edge { stroke: #5f6b7a; stroke-width: 2.5; fill: none; marker-end: url(#arrow); }
    </style>
  </defs>

  <rect x="0" y="0" width="1360" height="620" fill="#ffffff"/>
  <text x="40" y="34" class="title">Q1 Playwright Progress</text>

  <rect x="40" y="56" width="390" height="504" rx="18" ry="18" fill="#edf7ea" stroke="#82b366" stroke-width="2"/>
  <text x="60" y="88" class="lane-title">Completed Foundation</text>

  <rect x="60" y="120" width="350" height="64" class="box" fill="#f9fff7" stroke="#82b366"/>
  <text x="84" y="156" class="text">Done: Playwright session lifecycle in core</text>

  <rect x="60" y="212" width="350" height="64" class="box" fill="#f9fff7" stroke="#82b366"/>
  <text x="84" y="248" class="text">Done: Central runtime config in FrameworkConfig</text>

  <rect x="60" y="304" width="350" height="64" class="box" fill="#f9fff7" stroke="#82b366"/>
  <text x="84" y="340" class="text">Done: Cucumber hooks attach screenshots and traces</text>

  <rect x="60" y="396" width="350" height="64" class="box" fill="#f9fff7" stroke="#82b366"/>
  <text x="84" y="432" class="text">Done: Area-based Gradle runners and artifact roots</text>

  <rect x="485" y="56" width="390" height="504" rx="18" ry="18" fill="#edf4ff" stroke="#6c8ebf" stroke-width="2"/>
  <text x="505" y="88" class="lane-title">Current Progress</text>

  <rect x="505" y="160" width="350" height="78" class="box" fill="#f8fbff" stroke="#6c8ebf"/>
  <text x="529" y="192" class="text">Current: common area coverage</text>
  <text x="529" y="216" class="small">1 feature / 1 scenario</text>

  <rect x="505" y="280" width="350" height="78" class="box" fill="#f8fbff" stroke="#6c8ebf"/>
  <text x="529" y="312" class="text">Current: demoapp area coverage</text>
  <text x="529" y="336" class="small">1 feature / 1 scenario</text>

  <rect x="505" y="420" width="350" height="78" class="box" fill="#f8fbff" stroke="#6c8ebf"/>
  <text x="529" y="452" class="text">Current: full-suite + app-specific runners</text>
  <text x="529" y="476" class="small">3 runner entry points</text>

  <rect x="930" y="56" width="390" height="504" rx="18" ry="18" fill="#fff3e3" stroke="#d79b00" stroke-width="2"/>
  <text x="950" y="88" class="lane-title">Next Plan</text>

  <rect x="950" y="120" width="350" height="64" class="box" fill="#fffaf2" stroke="#d79b00"/>
  <text x="974" y="156" class="text">Next: onboard additional app areas</text>

  <rect x="950" y="220" width="350" height="64" class="box" fill="#fffaf2" stroke="#d79b00"/>
  <text x="974" y="256" class="text">Next: deepen business flows and assertions</text>

  <rect x="950" y="320" width="350" height="64" class="box" fill="#fffaf2" stroke="#d79b00"/>
  <text x="974" y="356" class="text">Later: enable safe parallel execution per area</text>

  <rect x="950" y="420" width="350" height="64" class="box" fill="#fffaf2" stroke="#d79b00"/>
  <text x="974" y="456" class="text">Later: refresh the quarterly summary each cycle</text>

  <path d="M 235 184 L 235 212" class="edge"/>
  <path d="M 235 276 L 235 304" class="edge"/>
  <path d="M 235 368 L 235 396" class="edge"/>

  <path d="M 410 428 C 450 428, 455 199, 505 199" class="edge"/>
  <path d="M 410 428 C 450 428, 455 319, 505 319" class="edge"/>
  <path d="M 680 238 L 680 420" class="edge"/>
  <path d="M 680 358 L 680 420" class="edge"/>

  <path d="M 855 459 C 900 459, 905 152, 950 152" class="edge"/>
  <path d="M 1125 184 L 1125 220" class="edge"/>
  <path d="M 1125 284 L 1125 320" class="edge"/>
  <path d="M 1125 384 L 1125 420" class="edge"/>
</svg>
